<svg width="180" height="34" viewBox="0 0 180 34" fill="none" aria-hidden="true">
<path d="M37.504 9.983c-1.515 0-2.763 1.204-2.763 2.723v11.521h2.763v-11.52h6.589V9.982h-6.589zM60.566 17.079V12.68c0-1.492-1.222-2.723-2.763-2.723h-8.927c-1.515 0-2.764 1.204-2.764 2.723v8.798c0 1.492 1.223 2.723 2.764 2.723h8.927c1.515 0 2.763-1.205 2.763-2.723v-4.4zm-2.763 0v4.399h-8.927V12.68h8.927v4.399zM66.093 9.983c-1.515 0-2.764 1.204-2.764 2.723v8.798c0 1.492 1.223 2.723 2.764 2.723l9.724-.13v-2.593h-9.724v-8.798h9.724v-2.592l-9.724-.131zM91.655 9.983H87.91l-5.474 5.734h-1.089V9.983h-2.763v14.218h2.763v-5.76H82.94l5.686 5.76h3.8l-7.307-7.436 6.536-6.782zM95.77 21.478V18.44l11.692-.13v-5.63c0-1.492-1.223-2.723-2.764-2.723h-8.927c-1.515 0-2.763 1.204-2.763 2.723v8.798c0 1.492 1.222 2.723 2.763 2.723l11.691-.131v-2.592H95.771zm0-8.798h8.928v3.037h-8.927V12.68zM114.396 5.82h-1.063l-1.7 2.069v2.068h-2.099v2.723l2.099-.026v8.824c0 1.493 1.222 2.723 2.763 2.723l4.464-.13v-2.593h-4.464v-8.85l4.862-.079V9.957h-4.862V5.82zM133.819 18.44c0-1.492-1.223-2.723-2.764-2.723h-6.961V12.68h9.725v-2.592l-9.725-.131c-1.514 0-2.763 1.204-2.763 2.723v3.037c0 1.493 1.222 2.723 2.763 2.723h6.961v3.038h-9.724v2.592l9.724.13c1.515 0 2.764-1.204 2.764-2.722V18.44zM148.246 9.983h-8.928c-1.514 0-2.763 1.204-2.763 2.723v8.798c0 1.492 1.222 2.723 2.763 2.723l11.691-.13v-2.593h-11.691v-3.037l11.691-.131v-5.63c0-1.518-1.222-2.723-2.763-2.723zm0 5.734h-8.928V12.68h8.928v3.037zM165.463 9.983l-11.691.13v2.593h11.691v3.037l-11.691.131v5.63c0 1.492 1.222 2.723 2.763 2.723h8.928c1.514 0 2.763-1.204 2.763-2.723v-8.798a2.759 2.759 0 00-2.763-2.723zm0 11.495h-8.928V18.44h8.928v3.038zM175.138 12.628l4.862-.079V9.957h-4.862V5.794h-1.063l-1.7 2.068v2.069h-2.099v2.723l2.099-.026v8.824c0 1.492 1.222 2.723 2.763 2.723l4.463-.131v-2.592h-4.463v-8.824z" class="css-1vaccss"></path>
</svg>
